<svg xmlns="http://www.w3.org/2000/svg" width="20.479" height="25.62" viewBox="0 0 20.479 25.62">
    <defs>
        <style>
            .cls-1{fill:#5d5d5d}
        </style>
    </defs>
    <g id="Group_217" data-name="Group 217" transform="translate(-628.897 -228.96)">
        <path id="Path_25" d="M643.075 241.969a6.5 6.5 0 1 0-6.5-6.5 6.512 6.512 0 0 0 6.5 6.5zm0-11.549a5.044 5.044 0 1 1-5.045 5.045 5.05 5.05 0 0 1 5.045-5.045z" class="cls-1" data-name="Path 25" transform="translate(-3.938)"/>
        <path id="Path_26" d="M644.736 261.574h-11.2a4.647 4.647 0 0 0-4.641 4.641v.464a4.647 4.647 0 0 0 4.641 4.641h11.2a4.647 4.647 0 0 0 4.641-4.641v-.464a4.647 4.647 0 0 0-4.641-4.641zm3.18 5.1a3.185 3.185 0 0 1-3.18 3.18h-11.2a3.185 3.185 0 0 1-3.181-3.18v-.464a3.185 3.185 0 0 1 3.181-3.18h11.2a3.185 3.185 0 0 1 3.18 3.18z" class="cls-1" data-name="Path 26" transform="translate(0 -16.739)"/>
    </g>
</svg>
